# xmcd
#
# Track frame offsets:
#	150
#	17837
#	32824
#	52394
#	69989
#	92494
#	106582
#	121531
#	141039
#	158919
#
# Disc length: 2390 seconds
#
# Revision: 1
# Processed by: cddbd v1.5.1PL0 Copyright (c) Steve Scherf et al.
# Submitted via: audiograbber 1.83.01
#
DISCID=7909540a
DTITLE=PRASIA - True North
DYEAR=1900
DGENRE=Gospel
TTITLE0=Let Everything that Has Breath
TTITLE1=Magnify, Glorify
TTITLE2=True North
TTITLE3=Sa Piling Mo
TTITLE4=Ang Buhay Ko'y Alay Sa Iyo
TTITLE5=I Give My Best
TTITLE6=Tapat Akong Maglilingkod
TTITLE7=Dahilan
TTITLE8=God Forgives
TTITLE9=Rest in God Alone
EXTD=
EXTT0=
EXTT1=
EXTT2=
EXTT3=
EXTT4=
EXTT5=
EXTT6=
EXTT7=
EXTT8=
EXTT9=
PLAYORDER=
